<svg id="Layer_1" data-name="Layer 1" xmlns="http://www.w3.org/2000/svg" viewBox="0 0 800 800"><defs><style>.cls-1{fill:#231f20;}</style></defs><title>coyote_icon</title><path class="cls-1" d="M219.19,329.12c-41.89,0-68.7-31.12-68.7-73.79,0-40.9,26.62-73.59,68.51-73.59,41.7,0,68.9,31.51,68.9,74.58C287.9,298,260.69,329.12,219.19,329.12Zm0-122.33c-23.68,0-39.34,19.77-39.34,48.54,0,29.95,15.66,48.74,39.34,48.74,23.49,0,39.34-18.79,39.34-48C258.54,226.36,243.27,206.79,219.19,206.79Z"/><path class="cls-1" d="M474.55,329.12c-41.89,0-68.7-31.12-68.7-73.79,0-40.9,26.62-73.59,68.51-73.59,41.7,0,68.9,31.51,68.9,74.58C543.25,298,516,329.12,474.55,329.12Zm0-122.33c-23.68,0-39.34,19.77-39.34,48.54,0,29.95,15.66,48.74,39.34,48.74,23.49,0,39.34-18.79,39.34-48C513.89,226.36,498.63,206.79,474.55,206.79Z"/></svg>