<?xml version="1.0" standalone="no"?>
<!DOCTYPE svg PUBLIC "-//W3C//DTD SVG 20010904//EN"
 "http://www.w3.org/TR/2001/REC-SVG-20010904/DTD/svg10.dtd">
<svg version="1.0" xmlns="http://www.w3.org/2000/svg"
 width="700.000000pt" height="700.000000pt" viewBox="0 0 700.000000 700.000000"
 preserveAspectRatio="xMidYMid meet">
<metadata>
Created by potrace 1.11, written by Peter Selinger 2001-2013
</metadata>
<g transform="translate(0.000000,700.000000) scale(0.100000,-0.100000)"
fill="#000000" stroke="none">
<path d="M1761 5389 c-263 -67 -438 -309 -443 -613 0 -39 2 -91 6 -116 4 -25
10 -58 12 -75 13 -76 84 -215 147 -285 55 -62 187 -142 250 -154 15 -2 31 -7
37 -11 23 -14 213 -15 281 0 145 30 276 117 358 238 27 39 62 107 66 127 0 3
6 21 13 40 19 58 23 90 27 197 6 203 -55 377 -176 503 -137 143 -368 202 -578
149z m247 -213 c111 -33 183 -107 224 -231 31 -93 33 -270 4 -358 -36 -108
-117 -199 -206 -228 -19 -6 -69 -13 -110 -14 -99 -4 -174 29 -241 103 -149
165 -134 519 27 661 82 72 199 98 302 67z"/>
<path d="M4060 5404 c-257 -43 -439 -223 -496 -489 -15 -72 -12 -236 7 -320
63 -289 270 -463 560 -470 86 -3 118 0 198 19 75 17 176 79 245 149 117 118
176 271 177 457 3 386 -239 655 -591 657 -41 1 -86 -1 -100 -3z m187 -229
c158 -47 253 -212 247 -430 -3 -131 -38 -228 -109 -304 -65 -70 -128 -95 -235
-95 -74 0 -92 3 -144 29 -128 64 -200 212 -195 400 3 131 37 229 105 309 78
91 209 127 331 91z"/>
</g>
</svg>
